<mxfile host="" modified="2020-06-29T03:18:48.019Z" agent="5.0 (Macintosh; Intel Mac OS X 10_15_2) AppleWebKit/537.36 (KHTML, like Gecko) Code/1.46.1 Chrome/78.0.3904.130 Electron/7.3.1 Safari/537.36" etag="lW5vrNei9a9wubBwaSWl" version="13.1.3">
    <diagram id="6hGFLwfOUW9BJ-s0fimq" name="Page-1">
        <mxGraphModel dx="612" dy="572" grid="1" gridSize="10" guides="1" tooltips="1" connect="0" arrows="1" fold="1" page="1" pageScale="1" pageWidth="1169" pageHeight="827" math="0" shadow="1">
            <root>
                <mxCell id="0"/>
                <mxCell id="1" parent="0"/>
                <mxCell id="61" value="" style="ellipse;whiteSpace=wrap;html=1;aspect=fixed;" parent="1" vertex="1">
                    <mxGeometry x="608" y="246" width="10" height="10" as="geometry"/>
                </mxCell>
                <mxCell id="60" value="" style="ellipse;whiteSpace=wrap;html=1;aspect=fixed;" parent="1" vertex="1">
                    <mxGeometry x="692" y="340" width="10" height="10" as="geometry"/>
                </mxCell>
                <mxCell id="62" value="" style="ellipse;whiteSpace=wrap;html=1;aspect=fixed;" parent="1" vertex="1">
                    <mxGeometry x="566" y="482" width="10" height="10" as="geometry"/>
                </mxCell>
                <mxCell id="53" value="" style="endArrow=none;html=1;exitX=0.591;exitY=0.003;exitDx=0;exitDy=0;exitPerimeter=0;" parent="1" edge="1">
                    <mxGeometry width="50" height="50" relative="1" as="geometry">
                        <mxPoint x="585.5600000000001" y="501.56100000000004" as="sourcePoint"/>
                        <mxPoint x="557" y="502" as="targetPoint"/>
                        <Array as="points">
                            <mxPoint x="571" y="489"/>
                        </Array>
                    </mxGeometry>
                </mxCell>
                <mxCell id="41" value="" style="ellipse;whiteSpace=wrap;html=1;aspect=fixed;" parent="1" vertex="1">
                    <mxGeometry x="253" y="340" width="10" height="10" as="geometry"/>
                </mxCell>
                <mxCell id="29" value="" style="endArrow=none;html=1;exitX=0.499;exitY=0.004;exitDx=0;exitDy=0;exitPerimeter=0;" parent="1" source="30" edge="1">
                    <mxGeometry width="50" height="50" relative="1" as="geometry">
                        <mxPoint x="571" y="498" as="sourcePoint"/>
                        <mxPoint x="570.5" y="437" as="targetPoint"/>
                    </mxGeometry>
                </mxCell>
                <mxCell id="22" value="" style="endArrow=none;html=1;" parent="1" edge="1">
                    <mxGeometry width="50" height="50" relative="1" as="geometry">
                        <mxPoint x="651" y="345" as="sourcePoint"/>
                        <mxPoint x="711" y="345" as="targetPoint"/>
                    </mxGeometry>
                </mxCell>
                <mxCell id="24" value="" style="endArrow=none;html=1;entryX=0.013;entryY=0.576;entryDx=0;entryDy=0;entryPerimeter=0;" parent="1" target="9" edge="1">
                    <mxGeometry width="50" height="50" relative="1" as="geometry">
                        <mxPoint x="202" y="345" as="sourcePoint"/>
                        <mxPoint x="271" y="338" as="targetPoint"/>
                    </mxGeometry>
                </mxCell>
                <mxCell id="23" value="" style="endArrow=none;html=1;" parent="1" edge="1">
                    <mxGeometry width="50" height="50" relative="1" as="geometry">
                        <mxPoint x="421" y="345" as="sourcePoint"/>
                        <mxPoint x="490" y="345" as="targetPoint"/>
                    </mxGeometry>
                </mxCell>
                <mxCell id="18" value="&amp;nbsp;投稿ID&lt;br&gt;&lt;br&gt;&amp;nbsp;投稿内容&lt;br&gt;&amp;nbsp;添付ファイル名&lt;br&gt;&amp;nbsp;チャットルームID（FK）&lt;br&gt;&amp;nbsp;投稿日時&lt;br&gt;&amp;nbsp;投稿者ID&lt;br&gt;&amp;nbsp;更新日時&lt;br&gt;&amp;nbsp;更新者ID&lt;br&gt;&amp;nbsp;削除フラグ" style="rounded=0;whiteSpace=wrap;html=1;align=left;" parent="1" vertex="1">
                    <mxGeometry x="491" y="78" width="160" height="159" as="geometry"/>
                </mxCell>
                <mxCell id="2" value="&amp;nbsp;ユーザーID&lt;br&gt;&lt;br&gt;&amp;nbsp;メールアドレス&lt;br&gt;&amp;nbsp;パスワード&lt;br&gt;&amp;nbsp;表示名&lt;br&gt;&amp;nbsp;自己紹介&lt;br&gt;&amp;nbsp;勤務先電話番号&lt;br&gt;&amp;nbsp;携帯電話番号&lt;br&gt;&amp;nbsp;作成日時&lt;br&gt;&amp;nbsp;更新日時&lt;br&gt;&amp;nbsp;削除フラグ" style="rounded=0;whiteSpace=wrap;html=1;align=left;" parent="1" vertex="1">
                    <mxGeometry x="60" y="290" width="141" height="168" as="geometry"/>
                </mxCell>
                <mxCell id="9" value="&amp;nbsp;チャットルーム作成ID&lt;br&gt;&lt;br&gt;&amp;nbsp;ユーザーID（FK）&lt;br&gt;&amp;nbsp;チャットルームID（FK）&lt;br&gt;&amp;nbsp;作成日時" style="rounded=0;whiteSpace=wrap;html=1;align=left;" parent="1" vertex="1">
                    <mxGeometry x="274" y="292" width="150" height="92" as="geometry"/>
                </mxCell>
                <mxCell id="12" value="&amp;nbsp;チャットルームID&lt;br&gt;&lt;br&gt;&amp;nbsp;チャットルーム名&lt;br&gt;&amp;nbsp;概要&lt;br&gt;&amp;nbsp;ファイル送信許可フラグ&lt;br&gt;&amp;nbsp;ダイレクトチャットフラグ&lt;br&gt;&amp;nbsp;更新日時&lt;br&gt;&amp;nbsp;更新者ID&lt;br&gt;&amp;nbsp;削除フラグ" style="rounded=0;whiteSpace=wrap;html=1;align=left;" parent="1" vertex="1">
                    <mxGeometry x="491" y="292" width="160" height="146" as="geometry"/>
                </mxCell>
                <mxCell id="15" value="&amp;nbsp;チャットルーム参加ID&lt;br&gt;&lt;br&gt;&amp;nbsp;チャットルームID（FK）&lt;br&gt;&amp;nbsp;参加者ID&lt;br&gt;&amp;nbsp;参加日時" style="rounded=0;whiteSpace=wrap;html=1;align=left;" parent="1" vertex="1">
                    <mxGeometry x="710" y="294" width="150" height="95" as="geometry"/>
                </mxCell>
                <mxCell id="3" value="" style="endArrow=none;html=1;entryX=1;entryY=0.207;entryDx=0;entryDy=0;entryPerimeter=0;" parent="1" edge="1">
                    <mxGeometry width="50" height="50" relative="1" as="geometry">
                        <mxPoint x="61" y="318" as="sourcePoint"/>
                        <mxPoint x="201" y="317.98" as="targetPoint"/>
                    </mxGeometry>
                </mxCell>
                <mxCell id="11" value="" style="endArrow=none;html=1;" parent="1" edge="1">
                    <mxGeometry width="50" height="50" relative="1" as="geometry">
                        <mxPoint x="274" y="322.02" as="sourcePoint"/>
                        <mxPoint x="424" y="322" as="targetPoint"/>
                    </mxGeometry>
                </mxCell>
                <mxCell id="14" value="" style="endArrow=none;html=1;" parent="1" edge="1">
                    <mxGeometry width="50" height="50" relative="1" as="geometry">
                        <mxPoint x="490" y="323.02" as="sourcePoint"/>
                        <mxPoint x="652" y="323" as="targetPoint"/>
                    </mxGeometry>
                </mxCell>
                <mxCell id="17" value="" style="endArrow=none;html=1;" parent="1" edge="1">
                    <mxGeometry width="50" height="50" relative="1" as="geometry">
                        <mxPoint x="710" y="328" as="sourcePoint"/>
                        <mxPoint x="861" y="329" as="targetPoint"/>
                    </mxGeometry>
                </mxCell>
                <mxCell id="20" value="" style="endArrow=none;html=1;" parent="1" edge="1">
                    <mxGeometry width="50" height="50" relative="1" as="geometry">
                        <mxPoint x="490" y="109.01999999999998" as="sourcePoint"/>
                        <mxPoint x="652" y="109" as="targetPoint"/>
                    </mxGeometry>
                </mxCell>
                <mxCell id="30" value="&amp;nbsp;タスクID&lt;br&gt;&lt;br&gt;&amp;nbsp;タスク内容&lt;br&gt;&amp;nbsp;タスク担当者ID&lt;br&gt;&amp;nbsp;チャットルームID（FK）&lt;br&gt;&amp;nbsp;完了期限&lt;br&gt;&amp;nbsp;完了フラグ&lt;br&gt;&amp;nbsp;作成日時&lt;br&gt;&amp;nbsp;作成者ID&lt;br&gt;&amp;nbsp;更新日時&lt;br&gt;&amp;nbsp;更新者ID&lt;br&gt;&amp;nbsp;削除フラグ" style="rounded=0;whiteSpace=wrap;html=1;align=left;" parent="1" vertex="1">
                    <mxGeometry x="491" y="501" width="160" height="187" as="geometry"/>
                </mxCell>
                <mxCell id="31" value="" style="endArrow=none;html=1;" parent="1" edge="1">
                    <mxGeometry width="50" height="50" relative="1" as="geometry">
                        <mxPoint x="491" y="532.02" as="sourcePoint"/>
                        <mxPoint x="653" y="532" as="targetPoint"/>
                    </mxGeometry>
                </mxCell>
                <mxCell id="35" value="" style="endArrow=none;html=1;" parent="1" edge="1">
                    <mxGeometry width="50" height="50" relative="1" as="geometry">
                        <mxPoint x="626" y="237" as="sourcePoint"/>
                        <mxPoint x="601" y="237" as="targetPoint"/>
                        <Array as="points">
                            <mxPoint x="613" y="248"/>
                        </Array>
                    </mxGeometry>
                </mxCell>
                <mxCell id="38" value="" style="endArrow=none;html=1;" parent="1" edge="1">
                    <mxGeometry width="50" height="50" relative="1" as="geometry">
                        <mxPoint x="211" y="356" as="sourcePoint"/>
                        <mxPoint x="211" y="336" as="targetPoint"/>
                    </mxGeometry>
                </mxCell>
                <mxCell id="39" value="" style="endArrow=none;html=1;entryX=0.001;entryY=0.48;entryDx=0;entryDy=0;entryPerimeter=0;" parent="1" edge="1">
                    <mxGeometry width="50" height="50" relative="1" as="geometry">
                        <mxPoint x="274" y="355" as="sourcePoint"/>
                        <mxPoint x="274.15000000000003" y="333.16" as="targetPoint"/>
                        <Array as="points">
                            <mxPoint x="260" y="345"/>
                        </Array>
                    </mxGeometry>
                </mxCell>
                <mxCell id="42" value="" style="endArrow=none;html=1;" parent="1" edge="1">
                    <mxGeometry width="50" height="50" relative="1" as="geometry">
                        <mxPoint x="433" y="356" as="sourcePoint"/>
                        <mxPoint x="433" y="336" as="targetPoint"/>
                    </mxGeometry>
                </mxCell>
                <mxCell id="43" value="" style="endArrow=none;html=1;" parent="1" edge="1">
                    <mxGeometry width="50" height="50" relative="1" as="geometry">
                        <mxPoint x="482" y="356" as="sourcePoint"/>
                        <mxPoint x="482" y="336" as="targetPoint"/>
                    </mxGeometry>
                </mxCell>
                <mxCell id="44" value="" style="endArrow=none;html=1;" parent="1" edge="1">
                    <mxGeometry width="50" height="50" relative="1" as="geometry">
                        <mxPoint x="660" y="356" as="sourcePoint"/>
                        <mxPoint x="660" y="336" as="targetPoint"/>
                    </mxGeometry>
                </mxCell>
                <mxCell id="45" value="" style="endArrow=none;html=1;" parent="1" edge="1">
                    <mxGeometry width="50" height="50" relative="1" as="geometry">
                        <mxPoint x="710" y="353" as="sourcePoint"/>
                        <mxPoint x="710" y="335" as="targetPoint"/>
                        <Array as="points">
                            <mxPoint x="700" y="345"/>
                        </Array>
                    </mxGeometry>
                </mxCell>
                <mxCell id="47" value="" style="endArrow=none;html=1;" parent="1" edge="1">
                    <mxGeometry width="50" height="50" relative="1" as="geometry">
                        <mxPoint x="624.5" y="283" as="sourcePoint"/>
                        <mxPoint x="602" y="283" as="targetPoint"/>
                    </mxGeometry>
                </mxCell>
                <mxCell id="52" value="" style="endArrow=none;html=1;" parent="1" edge="1">
                    <mxGeometry width="50" height="50" relative="1" as="geometry">
                        <mxPoint x="582" y="448" as="sourcePoint"/>
                        <mxPoint x="559.5" y="448" as="targetPoint"/>
                    </mxGeometry>
                </mxCell>
                <mxCell id="64" value="" style="endArrow=none;html=1;entryX=0.499;entryY=1.001;entryDx=0;entryDy=0;entryPerimeter=0;" parent="1" edge="1">
                    <mxGeometry width="50" height="50" relative="1" as="geometry">
                        <mxPoint x="612.908636509414" y="292" as="sourcePoint"/>
                        <mxPoint x="612.84" y="237.159" as="targetPoint"/>
                    </mxGeometry>
                </mxCell>
                <mxCell id="65" value="&lt;font style=&quot;font-size: 12px&quot;&gt;チャットルーム作成&lt;/font&gt;" style="text;strokeColor=none;fillColor=none;html=1;fontSize=24;fontStyle=0;verticalAlign=middle;align=left;" vertex="1" parent="1">
                    <mxGeometry x="272" y="254" width="100" height="40" as="geometry"/>
                </mxCell>
                <mxCell id="66" value="&lt;font style=&quot;font-size: 12px&quot;&gt;ユーザー&lt;/font&gt;" style="text;strokeColor=none;fillColor=none;html=1;fontSize=24;fontStyle=0;verticalAlign=middle;align=left;" vertex="1" parent="1">
                    <mxGeometry x="59" y="254" width="100" height="40" as="geometry"/>
                </mxCell>
                <mxCell id="67" value="&lt;font style=&quot;font-size: 12px&quot;&gt;投稿&lt;/font&gt;" style="text;strokeColor=none;fillColor=none;html=1;fontSize=24;fontStyle=0;verticalAlign=middle;align=left;" vertex="1" parent="1">
                    <mxGeometry x="491" y="40" width="100" height="40" as="geometry"/>
                </mxCell>
                <mxCell id="68" value="&lt;font style=&quot;font-size: 12px&quot;&gt;チャットルーム&lt;/font&gt;" style="text;strokeColor=none;fillColor=none;html=1;fontSize=24;fontStyle=0;verticalAlign=middle;align=left;" vertex="1" parent="1">
                    <mxGeometry x="489" y="254" width="100" height="40" as="geometry"/>
                </mxCell>
                <mxCell id="69" value="&lt;font style=&quot;font-size: 12px&quot;&gt;チャットルーム参加&lt;/font&gt;" style="text;strokeColor=none;fillColor=none;html=1;fontSize=24;fontStyle=0;verticalAlign=middle;align=left;" vertex="1" parent="1">
                    <mxGeometry x="708" y="257" width="100" height="40" as="geometry"/>
                </mxCell>
                <mxCell id="70" value="&lt;font style=&quot;font-size: 12px&quot;&gt;タスク&lt;/font&gt;" style="text;strokeColor=none;fillColor=none;html=1;fontSize=24;fontStyle=0;verticalAlign=middle;align=left;" vertex="1" parent="1">
                    <mxGeometry x="489" y="465" width="100" height="40" as="geometry"/>
                </mxCell>
            </root>
        </mxGraphModel>
    </diagram>
</mxfile>
